<?xml version="1.0" encoding="utf-8"?>
<!-- Generator: Adobe Illustrator 23.0.1, SVG Export Plug-In . SVG Version: 6.00 Build 0)  -->
<svg version="1.1" id="Layer_1" xmlns="http://www.w3.org/2000/svg" xmlns:xlink="http://www.w3.org/1999/xlink" x="0px" y="0px"
	 viewBox="0 0 1080 1350" style="enable-background:new 0 0 1080 1350;" xml:space="preserve">
<style type="text/css">
	.st0{fill:#333333;}
</style>
<g>
	<g>
		<g>
			<path class="st0" d="M804.4,972.9c-8,0-16.1-3.1-22.2-9.2L252.8,434.2c-12.2-12.2-12.2-32.1,0-44.3c12.2-12.2,32.1-12.2,44.3,0
				l529.4,529.5c12.2,12.2,12.2,32.1,0,44.3C820.5,969.8,812.4,972.9,804.4,972.9z"/>
		</g>
	</g>
	<g>
		<g>
			<path class="st0" d="M275,972.9c-8,0-16.1-3.1-22.2-9.2c-12.2-12.2-12.2-32.1,0-44.3l529.4-529.5c12.2-12.2,32.1-12.2,44.3,0
				s12.2,32.1,0,44.3L297.1,963.7C291,969.8,283,972.9,275,972.9z"/>
		</g>
	</g>
</g>
</svg>
