<?xml version="1.0" encoding="utf-8"?>
<!-- Generator: Adobe Illustrator 23.0.3, SVG Export Plug-In . SVG Version: 6.00 Build 0)  -->
<svg version="1.1" id="Layer_1" xmlns="http://www.w3.org/2000/svg" xmlns:xlink="http://www.w3.org/1999/xlink" x="0px" y="0px"
	 viewBox="0 0 1247.3 340.3" style="enable-background:new 0 0 1247.3 340.3;" xml:space="preserve">
<style type="text/css">
	.st0{fill:#7BB2E0;}
</style>
<g>
	<g>
		<path class="st0" d="M74.9,136.3c55.2,55.9,113.1,88.3,129.4,72.2c6-6,5.4-17.8-0.6-33.1c-0.3-0.2-0.5-0.4-0.8-0.7
			c2.5,9,2.1,15.9-1.8,19.8c-13.1,13.2-60.5-12.8-105.9-57.9C49.8,91.5,23.6,44.3,36.7,31.1c11.8-11.9,51.7,8.1,92.7,45.4
			c-0.6-1.3-1.1-2.6-1.6-3.9C74.4,20.2,19.9-9.4,4.2,6.1C-12,22.1,19.7,80.4,74.9,136.3z"/>
	</g>
	<g>
		<path class="st0" d="M175.9,160.4c0,0,0.1,0,0.1,0c-3.2-9.6-3.2-17,0.7-20.9c11.5-11.3,52.2,11.6,90.8,51.1s60.5,80.7,49,92
			c-8.6,8.4-33.5-2.2-61.6-24.6c-0.3,0.9-0.7,1.9-1,2.8c40.1,36.3,78.1,55.5,90.3,43.7c14.3-13.7-12.2-64.6-59.1-113.5
			c-46.9-49-96.6-77.5-110.9-63.8C168.4,133,169.5,144.9,175.9,160.4z"/>
	</g>
	<g>
		<path class="st0" d="M66.9,327.4c24.2,24.2,79.6,7.9,123.7-36.3c44.1-44.2,60.2-99.7,35.9-123.8c-7.1-7.1-16.9-10.7-28.4-11.1
			c-1.5,1.2-2.8,2.5-4,4c8.4,0.7,15.5,3.7,20.7,9.1c18.6,19.4,5.1,62.6-30.2,96.6c-35.3,34-79.1,45.9-97.7,26.5
			c-17.8-18.5-6.3-58.8,25.6-92c-0.2-1.8-0.5-3.5-0.8-5.2c-3,2.7-6,5.5-8.9,8.4C58.7,247.8,42.6,303.2,66.9,327.4z"/>
	</g>
	<g>
		<path class="st0" d="M142.6,156.8c7.6,11.7,21.5,17.8,38,18.1c-0.1-1.1-0.1-2.2-0.2-3.4c-8.5-1.8-15.6-6.1-20.1-12.7
			c-12.7-18.5-0.7-48.7,26.6-67.5c27.4-18.7,59.8-18.9,72.5-0.4c8.5,12.4,5.9,30.1-4.9,46c0.7,0.2,1.4,0.4,2.1,0.5
			c0.2,0.1,0.5,0.1,0.7,0.2c17.7-20.9,23.5-45.6,12.4-62.8c-15.2-23.5-55.9-24.2-91-1.5C143.6,95.9,127.4,133.3,142.6,156.8z"/>
	</g>
</g>
<g>
	<path class="st0" d="M487.7,0c27.7,0,50.9,3.3,69.5,19.4c20.3,17.4,25.2,41.8,25.2,59.1c0,38.9-24.4,77.3-87.2,77.3h-26.9v119.9
		h-30.6V0H487.7z M468.3,126.9h25.2c36.4,0,58.3-18.2,58.3-50c0-43.8-40.9-48-60.8-48h-22.7V126.9z"/>
	<path class="st0" d="M656.9,169.1c0,23.2,0,48.4,21.9,67c11.2,9.5,30.2,15.7,45.5,15.7c15.3,0,34.3-6.2,45.5-15.7
		c21.9-18.6,21.9-43.8,21.9-67V0h30.6v177.4c0,23.2-2.5,45.5-17.4,66.2c-16.5,22.7-45.5,37.2-80.6,37.2s-64.1-14.5-80.6-37.2
		c-14.9-20.7-17.4-43-17.4-66.2V0h30.6V169.1z"/>
	<path class="st0" d="M937.6,0c18.6,0,46.3,1.2,67,15.3c16.1,10.8,30.2,31.8,30.2,61.2c0,42.2-27.7,73.2-69.5,76.1l87.7,123.2h-37.2
		l-83.9-120.7H924v120.7h-30.6V0H937.6z M924,127.8h19.4c38,0,60.8-18.2,60.8-50.4c0-15.3-4.5-30.6-21.9-40.5
		c-12.4-7-26.5-7.9-39.7-7.9H924V127.8z"/>
	<path class="st0" d="M1244,28.9h-112.5v81.9h109.2v28.9h-109.2v107.1H1244v28.9H1101V0H1244V28.9z"/>
</g>
<g>
	<path class="st0" d="M444.6,303.1c3.5,0,6.5,0.4,8.8,2.5c2.6,2.2,3.2,5.3,3.2,7.5c0,4.9-3.1,9.8-11.1,9.8h-3.4v15.2h-3.9v-35.1
		H444.6z M442.1,319.3h3.2c4.6,0,7.4-2.3,7.4-6.4c0-5.6-5.2-6.1-7.7-6.1h-2.9V319.3z"/>
	<path class="st0" d="M467.8,303.1c2.4,0,5.9,0.2,8.5,1.9c2,1.4,3.8,4,3.8,7.8c0,5.4-3.5,9.3-8.8,9.7l11.1,15.7h-4.7l-10.7-15.3h-1
		v15.3h-3.9v-35.1H467.8z M466.1,319.4h2.5c4.8,0,7.7-2.3,7.7-6.4c0-1.9-0.6-3.9-2.8-5.2c-1.6-0.9-3.4-1-5-1h-2.4V319.4z"/>
	<path class="st0" d="M486.7,320.7c0-10.5,8.1-18.1,18.2-18.1s18.2,7.7,18.2,18.1c0,10.4-8.1,18.1-18.2,18.1
		S486.7,331.1,486.7,320.7z M490.7,320.7c0,8,6.4,14.5,14.2,14.5s14.2-6.4,14.2-14.5c0-8-6.4-14.5-14.2-14.5
		S490.7,312.6,490.7,320.7z"/>
	<path class="st0" d="M546.3,306.8h-12.1v10.4h11.7v3.7h-11.7v17.3h-3.9v-35.1h16V306.8z"/>
	<path class="st0" d="M571.3,306.8H557v10.4h13.9v3.7H557v13.6h14.3v3.7h-18.2v-35.1h18.2V306.8z"/>
	<path class="st0" d="M594.1,310.1c-0.5-0.9-1.3-2-2-2.6c-0.7-0.5-1.9-1.2-3.9-1.2c-3.5,0-5.9,2.2-5.9,5.4c0,1.4,0.4,2.2,1.3,3
		c1.1,1.1,2.4,1.6,3.7,2.2l3.4,1.5c2,0.9,3.9,1.8,5.4,3.3c1.8,1.8,2.5,3.8,2.5,6.4c0,6.5-4.8,10.8-11.1,10.8c-2.3,0-5.2-0.5-7.6-2.8
		c-1.7-1.7-2.8-4.1-3.3-6.2l3.8-1.1c0.3,1.8,1.1,3.4,2.1,4.5c1.5,1.5,3.3,1.9,5,1.9c4.8,0,7-3.4,7-6.9c0-1.6-0.5-2.9-1.7-4.1
		c-1-0.9-2.4-1.6-4.2-2.4l-3.2-1.5c-1.4-0.6-3.1-1.4-4.7-2.9c-1.5-1.5-2.4-3.1-2.4-5.7c0-5.4,4.2-9,9.8-9c2.2,0,3.9,0.4,5.6,1.6
		c1.4,0.9,2.6,2.4,3.4,3.9L594.1,310.1z"/>
	<path class="st0" d="M620.2,310.1c-0.5-0.9-1.3-2-2-2.6c-0.7-0.5-1.9-1.2-3.9-1.2c-3.5,0-5.9,2.2-5.9,5.4c0,1.4,0.4,2.2,1.3,3
		c1.1,1.1,2.4,1.6,3.7,2.2l3.4,1.5c2,0.9,3.9,1.8,5.4,3.3c1.8,1.8,2.5,3.8,2.5,6.4c0,6.5-4.8,10.8-11.1,10.8c-2.3,0-5.2-0.5-7.6-2.8
		c-1.7-1.7-2.8-4.1-3.3-6.2l3.8-1.1c0.3,1.8,1.1,3.4,2.1,4.5c1.5,1.5,3.3,1.9,5,1.9c4.8,0,7-3.4,7-6.9c0-1.6-0.5-2.9-1.7-4.1
		c-1-0.9-2.4-1.6-4.2-2.4l-3.2-1.5c-1.4-0.6-3.1-1.4-4.7-2.9c-1.5-1.5-2.4-3.1-2.4-5.7c0-5.4,4.2-9,9.8-9c2.2,0,3.9,0.4,5.6,1.6
		c1.4,0.9,2.6,2.4,3.4,3.9L620.2,310.1z"/>
	<path class="st0" d="M635.7,303.1v35.1h-3.9v-35.1H635.7z"/>
	<path class="st0" d="M642.8,320.7c0-10.5,8.1-18.1,18.2-18.1s18.2,7.7,18.2,18.1c0,10.4-8.1,18.1-18.2,18.1
		S642.8,331.1,642.8,320.7z M646.8,320.7c0,8,6.4,14.5,14.2,14.5s14.2-6.4,14.2-14.5c0-8-6.4-14.5-14.2-14.5
		S646.8,312.6,646.8,320.7z"/>
	<path class="st0" d="M686.5,338.2v-36.5l27.3,28.6v-27.2h3.9v36.6l-27.3-28.6v27.1H686.5z"/>
	<path class="st0" d="M746.1,328.3h-14.9l-4.2,9.9h-4.3l16.1-36.7l15.7,36.7h-4.3L746.1,328.3z M744.5,324.6l-5.9-14l-6,14H744.5z"
		/>
	<path class="st0" d="M763.3,303.1v31.4h9.7v3.7h-13.6v-35.1H763.3z"/>
	<path class="st0" d="M817.3,310.9c-1.1-1.1-2.8-2.4-4.6-3.3c-1.8-0.8-4-1.4-6-1.4c-8.1,0-14.1,6.5-14.1,14.6
		c0,9.5,7.7,14.3,14.1,14.3c2.4,0,4.7-0.7,6.5-1.6c2-1,3.4-2.3,4-2.9v4.8c-3.9,2.8-7.9,3.4-10.6,3.4c-10.4,0-18.1-7.9-18.1-18
		c0-10.5,7.8-18.2,18.3-18.2c2.1,0,6.2,0.3,10.4,3.5V310.9z"/>
	<path class="st0" d="M828.3,303.1v31.4h9.7v3.7h-13.6v-35.1H828.3z"/>
	<path class="st0" d="M861.4,306.8h-14.3v10.4H861v3.7h-13.9v13.6h14.3v3.7h-18.2v-35.1h18.2V306.8z"/>
	<path class="st0" d="M887.9,328.3H873l-4.2,9.9h-4.3l16.1-36.7l15.7,36.7H892L887.9,328.3z M886.4,324.6l-5.9-14l-6,14H886.4z"/>
	<path class="st0" d="M901.3,338.2v-36.5l27.3,28.6v-27.2h3.9v36.6l-27.3-28.6v27.1H901.3z"/>
	<path class="st0" d="M945.4,303.1v35.1h-3.9v-35.1H945.4z"/>
	<path class="st0" d="M954.5,338.2v-36.5l27.3,28.6v-27.2h3.9v36.6l-27.3-28.6v27.1H954.5z"/>
	<path class="st0" d="M1012.8,320.6h14.6v0.8c0,3.9-1.2,8.1-3.4,11.1c-1.1,1.4-5,6.3-13,6.3c-10.4,0-18.2-7.9-18.2-18.1
		c0-10.2,7.8-18.1,18.3-18.1c3.4,0,7.3,0.8,10.7,3.5c1.6,1.2,3,2.8,4,4.2l-2.9,2.6c-1-1.4-2.2-2.7-3.3-3.6c-1.7-1.4-4.3-2.9-8.5-2.9
		c-8.5,0-14.4,6.4-14.4,14.5c0,9.6,7.6,14.4,14.2,14.4c4.7,0,8.7-2.4,10.7-5.9c0.6-1.1,1.3-2.8,1.4-5h-10.4V320.6z"/>
	<path class="st0" d="M1062.5,310.1c-0.5-0.9-1.3-2-2-2.6c-0.7-0.5-1.9-1.2-3.9-1.2c-3.5,0-5.9,2.2-5.9,5.4c0,1.4,0.4,2.2,1.3,3
		c1.1,1.1,2.4,1.6,3.7,2.2l3.4,1.5c2,0.9,3.9,1.8,5.4,3.3c1.8,1.8,2.5,3.8,2.5,6.4c0,6.5-4.8,10.8-11.1,10.8c-2.3,0-5.2-0.5-7.6-2.8
		c-1.7-1.7-2.8-4.1-3.3-6.2l3.8-1.1c0.3,1.8,1.1,3.4,2.1,4.5c1.5,1.5,3.3,1.9,5,1.9c4.8,0,7-3.4,7-6.9c0-1.6-0.5-2.9-1.7-4.1
		c-1-0.9-2.4-1.6-4.2-2.4l-3.2-1.5c-1.4-0.6-3.1-1.4-4.7-2.9c-1.5-1.5-2.4-3.1-2.4-5.7c0-5.4,4.2-9,9.8-9c2.2,0,3.9,0.4,5.6,1.6
		c1.4,0.9,2.6,2.4,3.4,3.9L1062.5,310.1z"/>
	<path class="st0" d="M1092.2,306.8h-14.3v10.4h13.9v3.7h-13.9v13.6h14.3v3.7H1074v-35.1h18.2V306.8z"/>
	<path class="st0" d="M1105,303.1c2.4,0,5.9,0.2,8.5,1.9c2,1.4,3.8,4,3.8,7.8c0,5.4-3.5,9.3-8.8,9.7l11.1,15.7h-4.7l-10.7-15.3h-1
		v15.3h-3.9v-35.1H1105z M1103.3,319.4h2.5c4.8,0,7.7-2.3,7.7-6.4c0-1.9-0.6-3.9-2.8-5.2c-1.6-0.9-3.4-1-5-1h-2.4V319.4z"/>
	<path class="st0" d="M1126,303.1l9.9,26.8l9.9-26.8h4.3l-14.2,37.2l-14.2-37.2H1126z"/>
	<path class="st0" d="M1158.9,303.1v35.1h-3.9v-35.1H1158.9z"/>
	<path class="st0" d="M1194.7,310.9c-1.1-1.1-2.8-2.4-4.6-3.3c-1.8-0.8-4-1.4-6-1.4c-8.1,0-14.1,6.5-14.1,14.6
		c0,9.5,7.7,14.3,14.1,14.3c2.4,0,4.7-0.7,6.5-1.6c2-1,3.4-2.3,4-2.9v4.8c-3.9,2.8-7.9,3.4-10.6,3.4c-10.4,0-18.1-7.9-18.1-18
		c0-10.5,7.8-18.2,18.3-18.2c2.1,0,6.2,0.3,10.4,3.5V310.9z"/>
	<path class="st0" d="M1220,306.8h-14.3v10.4h13.9v3.7h-13.9v13.6h14.3v3.7h-18.2v-35.1h18.2V306.8z"/>
	<path class="st0" d="M1242.9,310.1c-0.5-0.9-1.3-2-2-2.6c-0.7-0.5-1.9-1.2-3.9-1.2c-3.5,0-5.9,2.2-5.9,5.4c0,1.4,0.4,2.2,1.3,3
		c1.1,1.1,2.4,1.6,3.7,2.2l3.4,1.5c2,0.9,3.9,1.8,5.4,3.3c1.8,1.8,2.5,3.8,2.5,6.4c0,6.5-4.8,10.8-11.1,10.8c-2.3,0-5.2-0.5-7.6-2.8
		c-1.7-1.7-2.8-4.1-3.3-6.2l3.8-1.1c0.3,1.8,1.1,3.4,2.1,4.5c1.5,1.5,3.3,1.9,5,1.9c4.8,0,7-3.4,7-6.9c0-1.6-0.5-2.9-1.7-4.1
		c-1-0.9-2.4-1.6-4.2-2.4l-3.2-1.5c-1.4-0.6-3.1-1.4-4.7-2.9c-1.5-1.5-2.4-3.1-2.4-5.7c0-5.4,4.2-9,9.8-9c2.2,0,3.9,0.4,5.6,1.6
		c1.4,0.9,2.6,2.4,3.4,3.9L1242.9,310.1z"/>
</g>
</svg>
